# xmcd
#
# Track frame offsets:
#	150
#	10560
#	27159
#	45104
#	60492
#	74524
#	96132
#	108935
#	121860
#	138639
#	153772
#
# Disc length: 2264 seconds
#
# Revision: 6
# Processed by: cddbd v1.5.2PL0 Copyright (c) Steve Scherf et al.
# Submitted via: EasyCDDAExtractor 16.0.8.1
#
DISCID=7d08d60b
DTITLE=Waylon Jennings, Mel Tillis, Bobby Bare, Jerry Reid - Old Dogs (Live)
DYEAR=1998
DGENRE=Country
TTITLE0=Old Dogs
TTITLE1=I Don't Do It No More
TTITLE2=She'd Rather Be Homeless
TTITLE3=Cut The Mustard
TTITLE4=Young Man's Job
TTITLE5=Me And Jimmie Rodgers
TTITLE6=Elvis Has Left The Building
TTITLE7=Rough On The Livin'
TTITLE8=Still Gonna Die
TTITLE9=I Never Expected
TTITLE10=Time
EXTD=the Album Title is OLD DOGS not OLD
EXTT0=
EXTT1=
EXTT2=
EXTT3=
EXTT4=
EXTT5=
EXTT6=
EXTT7=
EXTT8=
EXTT9=
EXTT10=
PLAYORDER=
